<svg width="157" height="40" viewBox="0 0 157 40" fill="none" xmlns="http://www.w3.org/2000/svg">
<g clip-path="url(#clip0_14625_4803)">
<path d="M54.0704 10.6796C54.9425 11.0639 55.6105 11.6138 56.0742 12.3295C56.538 13.0451 56.7706 13.8947 56.7719 14.8783C56.7719 15.8495 56.5393 16.6965 56.0742 17.4193C55.6091 18.1421 54.9412 18.696 54.0704 19.0809C53.1995 19.4646 52.177 19.6564 51.0027 19.6564H47.9429V23.5277H45.4264V10.0973H51.0017C52.176 10.1018 53.1989 10.296 54.0704 10.6796ZM53.3836 16.8556C53.9516 16.3981 54.2356 15.7397 54.2356 14.8803C54.2356 14.0208 53.9516 13.3624 53.3836 12.9049C52.8156 12.4474 51.983 12.2187 50.8859 12.2187H47.9429V17.5477H50.8859C51.9824 17.5477 52.8149 17.317 53.3836 16.8556V16.8556ZM68.8744 13.2882V23.5277H66.5677V22.2258C66.1756 22.6902 65.6772 23.0552 65.114 23.2904C64.5201 23.5425 63.8799 23.67 63.2338 23.6649C61.8524 23.6649 60.7638 23.2842 59.9682 22.5228C59.1726 21.7614 58.7768 20.6331 58.7807 19.1378V13.2882H61.2052V18.8123C61.2052 19.7325 61.415 20.4187 61.8346 20.871C62.2541 21.3232 62.8525 21.551 63.6297 21.5543C64.4945 21.5543 65.182 21.2893 65.6919 20.7592C66.2019 20.2292 66.4569 19.4652 66.4569 18.4672V13.2882H68.8744ZM80.0912 13.8225C80.8768 14.2493 81.5245 14.8876 81.9595 15.6635C82.4114 16.4563 82.6374 17.3712 82.6374 18.4084C82.6374 19.4456 82.4114 20.3629 81.9595 21.1602C81.5271 21.9405 80.879 22.5826 80.0912 23.011C79.2626 23.4549 78.3325 23.6797 77.3907 23.6639C76.7241 23.6718 76.0627 23.5478 75.4452 23.2992C74.866 23.0635 74.3556 22.6877 73.9608 22.2062V23.5277H71.6601V9.29929H74.0796V14.5352C74.4847 14.0933 74.984 13.746 75.5412 13.5186C76.1286 13.2836 76.7572 13.1663 77.3907 13.1735C78.3321 13.1569 79.2621 13.3804 80.0912 13.8225V13.8225ZM79.3174 20.7269C79.8913 20.1387 80.1783 19.3652 80.1783 18.4065C80.1783 17.4477 79.8913 16.6739 79.3174 16.0851C78.7428 15.4969 78.0102 15.2028 77.1195 15.2028C76.5709 15.1941 76.0298 15.3293 75.5511 15.5949C75.0845 15.859 74.7022 16.2476 74.4477 16.7164C74.1803 17.2397 74.041 17.818 74.041 18.4045C74.041 18.991 74.1803 19.5693 74.4477 20.0926C74.7022 20.5614 75.0845 20.95 75.5511 21.2141C76.0298 21.4797 76.5709 21.6149 77.1195 21.6062C78.0102 21.6101 78.7428 21.318 79.3174 20.7298V20.7269ZM84.1663 9.29635H86.5878V23.5277H84.1663V9.29635ZM89.4902 11.1854C89.3495 11.0533 89.2375 10.8941 89.1609 10.7176C89.0844 10.5412 89.0449 10.3511 89.0449 10.159C89.0449 9.96696 89.0844 9.7769 89.1609 9.60044C89.2375 9.42398 89.3495 9.26481 89.4902 9.13264C89.7901 8.85856 90.1867 8.71211 90.5946 8.72482C90.9992 8.71256 91.3935 8.85269 91.6979 9.11695C91.8412 9.2387 91.9554 9.39037 92.0324 9.56106C92.1094 9.73175 92.1472 9.91722 92.1433 10.1041C92.1479 10.3016 92.1116 10.498 92.0368 10.6811C91.9619 10.8642 91.8499 11.0302 91.7078 11.1688C91.5618 11.3121 91.3877 11.4243 91.1962 11.4984C91.0048 11.5726 90.8 11.6072 90.5946 11.6001C90.1862 11.6118 89.7895 11.4639 89.4902 11.1884V11.1854ZM89.3744 13.2853H91.7949V23.5277H89.3744V13.2853ZM96.441 22.9904C95.6122 22.5649 94.9211 21.9166 94.447 21.12C93.9773 20.2929 93.7305 19.3599 93.7305 18.4109C93.7305 17.4619 93.9773 16.5289 94.447 15.7018C94.9216 14.911 95.6085 14.2662 96.4311 13.8392C97.2762 13.3921 98.241 13.1686 99.3256 13.1686C100.345 13.1686 101.239 13.3732 102.007 13.7823C102.759 14.1744 103.365 14.7921 103.74 15.5469L101.882 16.6252C101.612 16.1791 101.228 15.8117 100.768 15.5606C100.318 15.3234 99.8155 15.2017 99.3058 15.2067C98.4026 15.2067 97.6542 15.4975 97.0605 16.0792C96.4667 16.6608 96.1698 17.4376 96.1698 18.4094C96.1698 19.3806 96.4634 20.1573 97.0506 20.7396C97.6377 21.3219 98.3895 21.6128 99.3058 21.6121C99.8157 21.6172 100.319 21.4952 100.768 21.2572C101.228 21.0072 101.612 20.6404 101.882 20.1946L103.74 21.2729C103.352 22.0275 102.741 22.6467 101.988 23.0473C101.22 23.463 100.332 23.6708 99.3256 23.6708C98.3222 23.6853 97.331 23.4525 96.441 22.9934V22.9904ZM115.317 23.5277L112.546 19.5956C112.372 19.6105 112.198 19.6167 112.023 19.6142H108.964V23.5277H106.448V10.0973H112.023C113.198 10.0973 114.22 10.2891 115.091 10.6727C115.961 11.0564 116.629 11.6063 117.094 12.3226C117.556 13.0415 117.787 13.8911 117.787 14.8714C117.787 15.8812 117.538 16.7507 117.041 17.4801C116.544 18.2094 115.833 18.7548 114.91 19.1162L118.028 23.5277H115.317ZM114.408 12.902C113.84 12.4445 113.007 12.2157 111.91 12.2157H108.967V17.5673H111.91C113.006 17.5673 113.839 17.334 114.408 16.8674C114.976 16.4007 115.26 15.739 115.26 14.8822C115.26 14.0241 114.976 13.365 114.408 12.9049V12.902ZM128.889 19.176H120.775C120.895 19.8951 121.294 20.539 121.888 20.97C122.488 21.4111 123.234 21.6317 124.124 21.6317C125.26 21.6317 126.196 21.2608 126.932 20.5191L128.229 21.9954C127.757 22.5506 127.151 22.9794 126.468 23.2424C125.702 23.534 124.887 23.6774 124.067 23.6649C122.931 23.6649 121.931 23.4411 121.067 22.9934C120.231 22.5734 119.535 21.9241 119.063 21.1229C118.585 20.298 118.341 19.3604 118.356 18.4094C118.343 17.4666 118.581 16.537 119.046 15.7145C119.493 14.9269 120.153 14.279 120.953 13.8441C121.796 13.3896 122.743 13.1586 123.703 13.1735C124.646 13.1578 125.577 13.3858 126.403 13.8352C127.189 14.2685 127.834 14.9146 128.262 15.6978C128.707 16.4978 128.93 17.4219 128.93 18.4702C128.928 18.6342 128.915 18.8695 128.889 19.176V19.176ZM121.736 15.7723C121.199 16.2266 120.873 16.8308 120.758 17.585H126.624C126.544 16.8888 126.206 16.2468 125.676 15.7831C125.148 15.3256 124.488 15.0969 123.697 15.0969C122.925 15.093 122.271 15.3181 121.736 15.7723V15.7723ZM130.863 9.30223H133.284V23.5277H130.863V9.30223ZM143.516 14.2597C144.323 14.9825 144.726 16.0726 144.725 17.5301V23.5277H142.441V22.2836C142.131 22.7428 141.689 23.1 141.173 23.31C140.624 23.546 139.965 23.6642 139.194 23.6649C138.495 23.6807 137.802 23.5469 137.161 23.2728C136.617 23.0418 136.15 22.6628 135.815 22.1797C135.499 21.7123 135.333 21.1603 135.341 20.5975C135.341 19.6766 135.686 18.9381 136.376 18.382C137.066 17.8258 138.155 17.5477 139.642 17.5477H142.314V17.3948C142.314 16.6791 142.097 16.1292 141.665 15.7449C141.232 15.3606 140.586 15.1681 139.728 15.1675C139.146 15.168 138.568 15.2586 138.014 15.4361C137.496 15.5928 137.013 15.8467 136.591 16.1841L135.643 14.4391C136.23 14.008 136.893 13.6891 137.598 13.499C138.385 13.2786 139.2 13.1691 140.018 13.1735C141.54 13.1735 142.706 13.5346 143.516 14.2568V14.2597ZM141.308 21.5141C141.77 21.2501 142.123 20.8337 142.306 20.3377V19.1378H139.808C138.414 19.1378 137.717 19.5917 137.717 20.4994C137.711 20.7015 137.755 20.9019 137.847 21.0827C137.938 21.2636 138.073 21.4192 138.24 21.5356C138.588 21.7912 139.072 21.919 139.692 21.919C140.26 21.9298 140.819 21.7875 141.311 21.5072L141.308 21.5141ZM157 13.2951L152.16 24.3619C151.707 25.4729 151.159 26.2572 150.514 26.7147C149.87 27.1722 149.089 27.3989 148.172 27.395C147.652 27.3942 147.135 27.3102 146.642 27.146C146.184 27.005 145.762 26.7694 145.403 26.4549L146.371 24.6903C146.611 24.9123 146.89 25.0882 147.194 25.2089C147.498 25.3339 147.823 25.3989 148.152 25.4001C148.531 25.4148 148.904 25.2998 149.208 25.0746C149.485 24.857 149.74 24.4926 149.972 23.9815L150.147 23.5786L145.636 13.2882H148.152L151.405 20.8641L154.677 13.2882L157 13.2951Z" fill="#08023F"/>
<path d="M22.9047 0V10.3434H11.7552V22.6905H7.878L3.66143 29.9566V22.6905H0V0H22.9047Z" fill="#5B52FF"/>
<path d="M34.6638 10.3434V33.0378H31.0024V40L26.96 33.0378H11.7552V22.6905H22.9047V10.3434H34.6638Z" fill="#A6DBFF"/>
<path d="M22.9047 10.3434H11.7552V22.6905H22.9047V10.3434Z" fill="#08023F"/>
</g>
<defs>
<clipPath id="clip0_14625_4803">
<rect width="157" height="40" fill="white"/>
</clipPath>
</defs>
</svg>
